<svg xmlns="http://www.w3.org/2000/svg" height="24px" viewBox="0 -960 960 960" width="24px" fill="currentColor"><path d="M370-80l-20-128q-17-7-35-18t-33-25l-118 52-94-164 106-76q-2-9-2-19.5t-2-21.5q0-11 2-21.5t2-19.5L64-600l94-164 118 52q15-14 33-25t35-18l20-128h192l20 128q17 7 35 18t33 25l118-52 94 164-106 76q2 9 2 19.5t2 21.5q0 11-2 21.5t-2 19.5l106 76-94 164-118-52q-15 14-33 25t-35 18l-20 128H370Zm90-260q66 0 113-47t47-113q0-66-47-113t-113-47q-66 0-113 47t-47 113q0 66 47 113t113 47Zm0-80q-33 0-56.5-23.5T380-480q0-33 23.5-56.5T460-560q33 0 56.5 23.5T540-480q0 33-23.5 56.5T460-420Zm0-60Z"/></svg>
