<svg xmlns="http://www.w3.org/2000/svg" height="48px" viewBox="0 -960 960 960" width="48px" fill="currentColor"><path d="M600-200q-83 0-141.5-58.5T400-400q0-8 1-15.5t2-15.5q-18 6-36 8.5t-37 2.5q-66 0-113-47T170-580q0-54 31.5-97t82.5-59q-3-11-3.5-22t-.5-22q0-58 41-99t99-41q31 0 58.5 13.5T527-869q26-28 62.5-44.5T668-930q75 0 128.5 53.5T850-748q0 21-4.5 41t-13.5 39q49 14 83.5 54.5T950-510q0 62-44 106t-106 44H600Zm0-80h200q29 0 49.5-20.5T870-350q0-28-19.5-48.5T801-420l-31-4-10-31q-10-34-36.5-54.5T668-530q-33 0-59.5 20.5T571-460l-7 24-24 6q-23 6-37 25t-14 45q0 33 23.5 56.5T571-280h29Zm-270 0q33 0 56.5-23.5T410-360q0-33-23.5-56.5T330-440q-33 0-56.5 23.5T250-360q0 33 23.5 56.5T330-280Zm0-80q-17 0-28.5-11.5T290-400q0-17 11.5-28.5T330-440q17 0 28.5 11.5T370-400q0 17-11.5 28.5T330-360Zm270-20q0-17-11.5-28.5T560-420q-17 0-28.5 11.5T520-380q0 17 11.5 28.5T560-340q17 0 28.5-11.5T600-380Z"/></svg>
